<svg width="193" height="115" viewBox="0 0 193 115" fill="none" xmlns="http://www.w3.org/2000/svg">
<g id="Group 2">
<g id="Group">
<path id="Vector" d="M22.2585 48.074C22.2585 48.074 24.3534 47.6174 28.5433 46.7044C32.7441 45.7878 39.9758 45.4054 50.2384 45.5571C60.503 45.7025 71.3425 46.2867 82.7569 47.3097C94.1733 48.3264 105.127 49.0309 115.619 49.4234C126.115 49.8173 134.446 50.1079 140.612 50.2952C146.778 50.4826 151.278 50.5273 154.111 50.4294C156.947 50.3252 158.987 50.172 160.231 49.97C161.47 49.7665 162.211 49.6862 162.454 49.729C162.697 49.7718 162.92 49.8678 163.124 50.0168C163.326 50.1722 163.5 50.3676 163.647 50.603C163.787 50.8433 163.891 51.1176 163.961 51.4259C164.027 51.7264 164.051 52.0446 164.032 52.3806C164.016 52.7244 163.96 53.0623 163.863 53.3944C163.767 53.7265 163.633 54.0432 163.463 54.3446C163.294 54.6396 163.099 54.9018 162.878 55.131C162.656 55.3603 162.418 55.5422 162.163 55.6769C161.912 55.813 161.659 55.8959 161.402 55.9255C161.148 55.9488 160.906 55.9201 160.675 55.8393C160.438 55.7633 160.228 55.6333 160.045 55.4491C159.858 55.2635 159.705 55.0401 159.587 54.7788C159.47 54.5111 159.391 54.2172 159.351 53.8971C159.313 53.5848 159.314 53.2571 159.355 52.9142C159.4 52.5727 159.484 52.2402 159.607 51.9167C159.733 51.5869 159.889 51.2844 160.076 51.0092C160.262 50.7339 160.475 50.4948 160.712 50.2917C160.948 50.0949 161.193 49.9465 161.447 49.8463C161.707 49.7413 161.962 49.6937 162.21 49.7034C162.459 49.7132 162.693 49.7743 162.914 49.8868C163.132 50.0056 163.326 50.1722 163.494 50.3866C163.658 50.5995 163.786 50.8465 163.878 51.1274C163.974 51.4161 164.025 51.7257 164.033 52.0562C164.045 52.3881 164.017 52.7212 163.949 53.0556C163.875 53.3948 163.765 53.7226 163.62 54.0389C163.47 54.3538 163.293 54.6358 163.09 54.8848C162.885 55.1402 162.659 55.354 162.411 55.526C162.166 55.6917 161.914 55.8066 161.657 55.8708C161.399 55.935 161.271 55.9671 161.271 55.9671C161.271 55.9671 160.67 55.9178 159.468 55.8192C158.268 55.7143 156.213 55.7299 153.303 55.8662C150.393 56.0024 145.848 55.999 139.668 55.856C133.485 55.7194 125.116 55.4863 114.56 55.1569C104 54.8261 93.0445 54.1945 81.6949 53.262C70.3477 52.3373 59.6815 51.8435 49.6964 51.7806C39.7112 51.7177 32.6208 52.2291 28.425 53.3148C24.2333 54.3878 22.0335 54.9329 21.8257 54.9501C21.6135 54.9659 21.4101 54.9462 21.2156 54.8909C21.0236 54.8434 20.8418 54.7643 20.6701 54.6534C20.4959 54.5349 20.3398 54.3906 20.2017 54.2208C20.0657 54.0447 19.9512 53.8475 19.8583 53.6293C19.7653 53.411 19.6962 53.1725 19.6508 52.9137C19.6033 52.6612 19.5821 52.3961 19.5871 52.1186C19.5921 51.841 19.6215 51.5642 19.6753 51.2883C19.7312 51.006 19.8084 50.7341 19.9069 50.4725C20.012 50.206 20.1374 49.953 20.2831 49.7135C20.4244 49.4725 20.583 49.2546 20.7589 49.0596C20.9368 48.8583 21.1255 48.6849 21.325 48.5394C21.5225 48.4002 21.7286 48.2882 21.9432 48.2034C22.1534 48.1171 22.2585 48.074 22.2585 48.074Z" fill="#056608"/>
</g>
<g id="Group_2">
<path id="Vector_2" d="M8.75851 53.3111C8.75851 53.3111 9.40862 53.3655 10.7089 53.4743C12.0099 53.5764 14.4957 53.9178 18.1663 54.4985C21.8428 55.0732 28.0387 55.9296 36.7537 57.0676C45.4687 58.2056 56.6577 59.368 70.3205 60.5548C83.9884 61.7422 96.1421 62.5032 106.781 62.8377C117.416 63.1649 126.424 63.0656 133.805 62.5397C141.18 62.0132 146.855 61.6926 150.829 61.5778C154.81 61.4571 158.025 61.1708 160.474 60.7189C162.923 60.2736 164.748 59.7705 165.95 59.2095C167.158 58.6424 168.639 58.0342 170.392 57.3849C172.152 56.7295 173.953 56.0724 175.797 55.4138C177.647 54.7491 179.308 54.2631 180.779 53.9559C182.244 53.648 183.178 53.5047 183.58 53.526C183.977 53.5467 184.359 53.6462 184.726 53.8245C185.093 54.0094 185.422 54.2637 185.714 54.5874C186.006 54.9111 186.247 55.2891 186.437 55.7215C186.632 56.1544 186.763 56.6166 186.831 57.1081C186.902 57.6068 186.905 58.1074 186.84 58.6098C186.779 59.1195 186.658 59.6052 186.476 60.0669C186.289 60.5346 186.052 60.9561 185.765 61.3314C185.479 61.7066 185.153 62.0134 184.788 62.2517C184.428 62.4972 184.048 62.6666 183.648 62.7597C183.249 62.8461 182.854 62.8526 182.464 62.7789C182.073 62.7053 181.706 62.5505 181.361 62.3145C181.016 62.0851 180.71 61.7866 180.444 61.4191C180.182 61.0587 179.977 60.648 179.827 60.187C179.672 59.7319 179.582 59.2512 179.559 58.7448C179.53 58.2378 179.569 57.7355 179.676 57.2381C179.778 56.7399 179.939 56.2725 180.159 55.8356C180.381 55.3921 180.65 55.0047 180.968 54.6735C181.287 54.3357 181.634 54.0685 182.01 53.8717C182.39 53.6822 182.782 53.568 183.186 53.5291C183.584 53.4962 183.975 53.5431 184.359 53.6697C184.737 53.8022 185.088 54.0088 185.411 54.2892C185.73 54.5691 186.004 54.9075 186.235 55.3044C186.46 55.7074 186.631 56.1475 186.747 56.6247C186.857 57.1079 186.903 57.6035 186.884 58.1115C186.865 58.6196 186.782 59.1165 186.634 59.6024C186.493 60.0823 186.292 60.5283 186.033 60.9404C185.779 61.3464 185.482 61.697 185.142 61.992C184.798 62.2797 184.43 62.4975 184.04 62.6455C183.65 62.7867 183.455 62.8574 183.455 62.8574C183.455 62.8574 182.914 62.9 181.832 62.9853C180.744 63.0766 179.2 63.2977 177.198 63.6489C175.198 63.9933 173.29 64.2382 171.476 64.3835C169.663 64.5288 168.052 64.7521 166.645 65.0536C165.238 65.3484 163.224 65.7449 160.601 66.2431C157.977 66.7413 154.699 67.0738 150.766 67.2404C146.832 67.4071 141.116 67.7866 133.617 68.3789C126.113 68.9706 117.006 69.1384 106.294 68.8826C95.5811 68.6333 83.3604 67.9717 69.6315 66.8979C55.9027 65.824 44.6686 64.7972 35.9294 63.8174C27.1849 62.8371 20.9303 62.165 17.1654 61.8013C13.3961 61.4304 10.88 61.0786 9.61713 60.746C8.35343 60.4201 7.6156 60.2209 7.40364 60.1485C7.19168 60.0761 6.99107 59.9749 6.80178 59.8448C6.61329 59.7081 6.44092 59.5464 6.28467 59.3598C6.13439 59.1673 6.00202 58.9567 5.88757 58.7281C5.77391 58.4929 5.68554 58.244 5.62245 57.9813C5.55498 57.7113 5.51679 57.4382 5.50787 57.1618C5.49456 56.8782 5.50934 56.6014 5.55221 56.3312C5.59587 56.0544 5.66244 55.7838 5.75192 55.5192C5.84657 55.2553 5.96255 55.0107 6.09985 54.7854C6.23794 54.5535 6.39696 54.3443 6.5769 54.1577C6.75087 53.9771 6.94019 53.8218 7.14486 53.6919C7.34436 53.5614 7.55283 53.4655 7.77029 53.4043C7.99372 53.337 8.21537 53.3065 8.43526 53.3127C8.65076 53.3117 8.75851 53.3111 8.75851 53.3111Z" fill="#056608"/>
</g>
</g>
</svg>
